<?xml version="1.0" encoding="utf-8"?>
<!-- Generator: Adobe Illustrator 24.2.0, SVG Export Plug-In . SVG Version: 6.00 Build 0)  -->
<svg version="1.1" id="圖層_1" xmlns="http://www.w3.org/2000/svg" xmlns:xlink="http://www.w3.org/1999/xlink" x="0px" y="0px"
	 viewBox="0 0 500 500" style="enable-background:new 0 0 500 500;" xml:space="preserve">
<style type="text/css">
	.st0{fill:#FFFFFF;}
</style>
<g>
	<path class="st0" d="M500,500c-166.67,0-333.33,0-500,0C0,333.33,0,166.67,0,0c166.67,0,333.33,0,500,0
		C500,166.67,500,333.33,500,500z M252.83,17.1c-12.45,1.2-24.9,2.41-37.35,3.6c-21.87,2.1-42.91,7.48-63.54,15.06
		C109.09,51.5,72.29,75.65,44.53,112.34c-22.17,29.29-34.02,62.52-34.7,99.27c-0.35,19.09,3.32,37.95,10.07,55.73
		c12.34,32.5,32.86,59.59,60.07,81.01c39.71,31.26,85.16,49.15,135.37,55.06c6.82,0.8,14.67,1.47,16.47,10.04
		c1.01,4.83,0.42,10.1-0.04,15.12c-1.1,11.95-3.11,23.84-3.71,35.81c-0.66,12.97,9.22,18.78,20.92,12.46
		c25.38-13.73,50.93-27.22,75.74-41.95c32-18.99,61.53-41.5,88.52-67.17c8.61-8.2,17.19-16.64,24.46-26
		c13-16.74,26.54-33.37,37.06-51.66c16.55-28.77,24.06-60.1,19.95-93.85c-2.07-16.98-5.83-33.32-12.82-48.77
		c-18.81-41.61-49.88-71.83-89.24-93.97C349.28,29.09,302.39,18.36,252.83,17.1z"/>
	<path d="M252.83,17.1c49.56,1.26,96.45,11.99,139.8,36.37c39.36,22.14,70.44,52.36,89.24,93.97c6.98,15.45,10.75,31.79,12.82,48.77
		c4.11,33.76-3.4,65.08-19.95,93.85c-10.52,18.29-24.06,34.92-37.06,51.66c-7.27,9.36-15.85,17.8-24.46,26
		c-26.99,25.67-56.52,48.18-88.52,67.17c-24.81,14.72-50.35,28.22-75.74,41.95c-11.69,6.33-21.57,0.51-20.92-12.46
		c0.61-11.97,2.61-23.86,3.71-35.81c0.46-5.02,1.05-10.29,0.04-15.12c-1.79-8.58-9.65-9.24-16.47-10.04
		c-50.21-5.91-95.66-23.8-135.37-55.06c-27.21-21.42-47.73-48.51-60.07-81.01c-6.75-17.78-10.42-36.65-10.07-55.73
		c0.68-36.75,12.53-69.97,34.7-99.27c35.94-47.5,83.95-67.23,107.41-76.58C178.48,25.18,200.15,21.36,209,20
		C226.31,17.34,241.32,16.86,252.83,17.1z M248.62,208.38c0.5-0.25,1-0.51,1.51-0.76c7.34,9.63,14.59,19.33,22.06,28.86
		c9.49,12.12,19.02,24.19,28.8,36.07c2.89,3.52,6.98,5.19,11.55,2.65c4.24-2.35,8-4.83,7.97-10.73
		c-0.15-32.21-0.05-64.43-0.09-96.64c-0.01-5.83-6.13-11.78-11.81-11.7c-5.73,0.07-11.62,5.99-11.64,11.87
		c-0.05,17.03-0.01,34.05-0.04,51.08c0,1.92-0.25,3.85-0.41,6.15c-1.24-0.49-2.05-0.56-2.38-0.99
		c-16.07-20.7-32.03-41.5-48.25-62.08c-1.72-2.18-4.83-4.16-7.52-4.51c-8.92-1.18-14.45,4.75-14.58,15.35
		c-0.17,15.18-0.05,30.37-0.05,45.56c0,14.27-0.6,28.56,0.19,42.79c0.65,11.61,6.13,15.4,13.72,14.94
		c7.73-0.47,10.94-4.65,10.95-14.78C248.62,243.79,248.62,226.08,248.62,208.38z M364.79,182.32c12.32,0,24.04,0.51,35.69-0.16
		c9.83-0.56,13.67-5.41,13.8-13.39c0.1-6.29-6.22-11.28-13.72-11.3c-15.65-0.04-31.31-0.05-46.96,0
		c-8.86,0.03-13.8,5.05-13.81,14.05c-0.03,30.38-0.04,60.77,0.01,91.15c0.01,8.46,5.12,13.52,13.6,13.55
		c15.65,0.06,31.31,0.04,46.96,0.01c8.18-0.02,14.08-5.36,13.99-12.53c-0.1-7.22-5.91-12.29-14.2-12.31
		c-11.66-0.03-23.32-0.01-35.01-0.01c0-7.79,0-14.77,0-22.1c12.2,0,23.92,0.16,35.64-0.06c6.38-0.12,11.04-2.83,13.03-9.59
		c1.74-5.92-0.82-10-5.08-12.93c-2.39-1.64-5.94-2.12-8.98-2.19c-11.62-0.24-23.25-0.1-34.94-0.1
		C364.79,196.67,364.79,190.02,364.79,182.32z M118.78,206.97c0-12.87,0.11-25.74-0.04-38.61c-0.08-6.69-5.56-11.94-12.13-12.13
		c-5.43-0.15-11.29,6.05-11.29,12.11c-0.02,31.95-0.03,63.89,0.01,95.84c0.01,7.28,3.7,11.78,11.04,11.94
		c17,0.36,34.02,0.31,51.02,0.02c6.59-0.11,11.43-6.6,11.13-13.65c-0.27-6.27-5.29-11.04-11.9-11.09
		c-9.88-0.07-19.78-0.35-29.64,0.1c-6.18,0.28-8.62-1.32-8.33-7.99C119.17,231.35,118.79,219.15,118.78,206.97z M180.94,216.75
		c0,15.62,0,31.25,0,46.87c0,9.04,3.38,12.6,11.95,12.62c9,0.03,12.89-3.69,12.9-12.55c0.03-31.71,0.03-63.42,0-95.13
		c-0.01-8.69-2.78-11.1-12.38-11.1c-9.64,0-12.42,2.4-12.45,11.03C180.9,184.58,180.94,200.66,180.94,216.75z"/>
	<path class="st0" d="M248.62,208.38c0,17.71,0,35.41,0,53.12c0,10.14-3.22,14.32-10.95,14.78c-7.59,0.46-13.08-3.33-13.72-14.94
		c-0.79-14.22-0.19-28.52-0.19-42.79c0-15.19-0.13-30.37,0.05-45.56c0.12-10.6,5.66-16.53,14.58-15.35c2.69,0.36,5.8,2.33,7.52,4.51
		c16.22,20.59,32.18,41.38,48.25,62.08c0.33,0.43,1.14,0.49,2.38,0.99c0.16-2.3,0.4-4.23,0.41-6.15
		c0.03-17.03-0.01-34.05,0.04-51.08c0.02-5.88,5.91-11.8,11.64-11.87c5.68-0.07,11.8,5.87,11.81,11.7
		c0.04,32.21-0.06,64.43,0.09,96.64c0.03,5.9-3.73,8.38-7.97,10.73c-4.58,2.54-8.66,0.87-11.55-2.65
		c-9.78-11.88-19.32-23.96-28.8-36.07c-7.46-9.53-14.71-19.23-22.06-28.86C249.62,207.87,249.12,208.12,248.62,208.38z"/>
	<path class="st0" d="M364.79,182.32c0,7.7,0,14.35,0,22.1c11.69,0,23.32-0.14,34.94,0.1c3.05,0.06,6.59,0.55,8.98,2.19
		c4.26,2.93,6.83,7.01,5.08,12.93c-1.99,6.75-6.65,9.47-13.03,9.59c-11.71,0.22-23.43,0.06-35.64,0.06c0,7.33,0,14.31,0,22.1
		c11.69,0,23.35-0.02,35.01,0.01c8.29,0.02,14.11,5.09,14.2,12.31c0.1,7.17-5.81,12.51-13.99,12.53
		c-15.65,0.04-31.31,0.05-46.96-0.01c-8.48-0.03-13.59-5.1-13.6-13.55c-0.04-30.38-0.03-60.77-0.01-91.15
		c0.01-8.99,4.95-14.02,13.81-14.05c15.65-0.05,31.31-0.04,46.96,0c7.5,0.02,13.82,5.01,13.72,11.3
		c-0.13,7.98-3.97,12.83-13.8,13.39C388.83,182.83,377.11,182.32,364.79,182.32z"/>
	<path class="st0" d="M118.78,206.97c0,12.18,0.38,24.38-0.15,36.54c-0.29,6.67,2.15,8.28,8.33,7.99c9.86-0.45,19.76-0.17,29.64-0.1
		c6.6,0.05,11.63,4.82,11.9,11.09c0.3,7.05-4.54,13.53-11.13,13.65c-17,0.29-34.02,0.34-51.02-0.02
		c-7.33-0.16-11.03-4.66-11.04-11.94c-0.04-31.95-0.03-63.89-0.01-95.84c0-6.06,5.86-12.26,11.29-12.11
		c6.57,0.18,12.05,5.44,12.13,12.13C118.89,181.23,118.78,194.1,118.78,206.97z"/>
	<path class="st0" d="M180.94,216.75c0-16.08-0.04-32.17,0.01-48.25c0.03-8.63,2.81-11.04,12.45-11.03c9.6,0,12.37,2.41,12.38,11.1
		c0.03,31.71,0.03,63.42,0,95.13c-0.01,8.87-3.9,12.58-12.9,12.55c-8.56-0.02-11.94-3.58-11.95-12.62
		C180.93,248,180.94,232.37,180.94,216.75z"/>
</g>
</svg>
