<?xml version="1.0" encoding="utf-8"?>
<!-- Generator: Adobe Illustrator 24.2.0, SVG Export Plug-In . SVG Version: 6.00 Build 0)  -->
<svg version="1.1" id="圖層_1" xmlns="http://www.w3.org/2000/svg" xmlns:xlink="http://www.w3.org/1999/xlink" x="0px" y="0px"
	 viewBox="0 0 500 500" style="enable-background:new 0 0 500 500;" xml:space="preserve">
<style type="text/css">
	.st0{fill:#FFFFFF;}
</style>
<g>
	<g>
		<path class="st0" d="M500,500c-166.67,0-333.33,0-500,0C0,333.33,0,166.67,0,0c166.67,0,333.33,0,500,0
			C500,166.67,500,333.33,500,500z M235.5,493.45c149.35-0.01,257.75-109.43,258.32-243.08C494.4,112.17,384.5,6.46,254.56,3.99
			C112.07,1.29,8.48,114.04,4.5,239.05C2.07,315.18,29.33,379.7,85.67,430.83C131.6,472.5,186.59,492.75,235.5,493.45z"/>
		<path d="M235.5,493.45c-48.91-0.7-103.9-20.95-149.83-62.63C29.33,379.7,2.07,315.18,4.5,239.05
			C8.48,114.04,112.07,1.29,254.56,3.99C384.5,6.46,494.4,112.17,493.81,250.37C493.25,384.02,384.85,493.44,235.5,493.45z
			 M389.14,403.92c61.52-54.2,91.88-151.12,50.59-242.62c-19.01-42.12-49.18-74.57-89.73-96.74c-43.5-23.79-90.09-31.29-138.87-22.4
			c-46.13,8.4-85.29,30.22-116.87,64.88c-36.12,39.65-54.09,86.81-54.8,140.29c-0.4,29.72,5.81,58.35,17.89,85.6
			c12.09,27.28,29.19,50.91,51.41,71.04c0.73-5.09,1.21-9.66,2.05-14.16c4.23-22.49,15.75-40.55,33.93-54.23
			c14.85-11.17,31.88-17.07,50.39-17.18c37.45-0.22,74.9,0.17,112.35,0.43c10.5,0.07,20.39,3.1,29.87,7.41
			c17.13,7.79,30.51,19.85,39.89,36.16c6.86,11.91,10.85,24.77,11.42,38.59C388.7,401.89,388.95,402.81,389.14,403.92z"/>
		<path class="st0" d="M389.14,403.92c-0.18-1.11-0.44-2.02-0.47-2.95c-0.57-13.83-4.56-26.68-11.42-38.59
			c-9.38-16.3-22.76-28.37-39.89-36.16c-9.48-4.31-19.37-7.33-29.87-7.41c-37.45-0.26-74.9-0.65-112.35-0.43
			c-18.51,0.11-35.54,6-50.39,17.18c-18.18,13.68-29.7,31.74-33.93,54.23c-0.85,4.5-1.33,9.08-2.05,14.16
			c-22.22-20.12-39.32-43.76-51.41-71.04c-12.07-27.24-18.28-55.88-17.89-85.6c0.71-53.48,18.68-100.64,54.8-140.29
			c31.57-34.66,70.73-56.48,116.87-64.88c48.78-8.88,95.37-1.39,138.87,22.4c40.55,22.17,70.72,54.63,89.73,96.74
			C481.02,252.79,450.66,349.71,389.14,403.92z M161.57,196.3c-0.05,48.55,39.11,86.78,85.74,87.46
			c50.65,0.74,89.3-39.2,89.29-87.45c-0.01-48.94-38.59-86.59-85.69-87.6C200.79,107.63,161.34,148.27,161.57,196.3z"/>
		<path d="M161.57,196.3c-0.23-48.03,39.22-88.67,89.34-87.59c47.1,1.01,85.68,38.66,85.69,87.6c0,48.25-38.64,88.19-89.29,87.45
			C200.68,283.08,161.52,244.85,161.57,196.3z"/>
	</g>
</g>
</svg>
