<?xml version="1.0" encoding="utf-8"?>
<!-- Generator: Adobe Illustrator 24.2.0, SVG Export Plug-In . SVG Version: 6.00 Build 0)  -->
<svg version="1.1" id="圖層_1" xmlns="http://www.w3.org/2000/svg" xmlns:xlink="http://www.w3.org/1999/xlink" x="0px" y="0px"
	 viewBox="0 0 500 500" style="enable-background:new 0 0 500 500;" xml:space="preserve">
<style type="text/css">
	.st0{fill:#FFFFFF;}
</style>
<g>
	<g>
		<path class="st0" d="M500,500c-166.67,0-333.33,0-500,0C0,333.33,0,166.67,0,0c166.67,0,333.33,0,500,0
			C500,166.67,500,333.33,500,500z M483.96,246.4c0.15-131.33-104.73-230.58-225.64-234C116.92,8.39,21.58,116.91,14.87,232.48
			c-4.09,70.28,19.06,131.54,68.55,181.27c44.23,44.45,99.24,67.82,162.03,68.6C379.29,484.01,485.51,376.57,483.96,246.4z"/>
		<path d="M483.96,246.4c1.55,130.17-104.67,237.61-238.51,235.95c-62.8-0.78-117.8-24.15-162.03-68.6
			c-49.49-49.73-72.64-110.99-68.55-181.27C21.58,116.91,116.92,8.39,258.31,12.4C379.23,15.82,484.11,115.07,483.96,246.4z
			 M249.57,434.49c104.89,1.41,183.79-84.43,187.54-177.69c4.6-114.51-85.35-198.09-187.62-197.59
			C144.11,59.73,65.8,140.92,61.64,239.85C57.03,349.47,147.38,436.97,249.57,434.49z"/>
		<path class="st0" d="M249.57,434.49c-102.19,2.48-192.54-85.02-187.93-194.65c4.16-98.93,82.47-180.12,187.84-180.63
			c102.28-0.5,192.22,83.08,187.62,197.59C433.36,350.06,354.46,435.9,249.57,434.49z M225.94,270.97c0,7.13-0.4,14.29,0.14,21.38
			c0.36,4.66,1.38,9.55,3.34,13.76c4.36,9.33,14.97,13.37,26.12,10.74c9.69-2.28,17.1-11.44,17.18-21.34
			c0.06-8.02-0.24-16.05,0.2-24.05c0.1-1.89,2.14-4.29,3.94-5.36c5.04-2.98,10.57-5.12,15.64-8.06
			c41.36-23.93,52.61-79.74,23.19-118.9c-20.88-27.8-50.39-38.18-84.83-30.72c-39.56,8.56-63.96,44.19-63.7,81.12
			c0.08,11.77,11.96,23.65,23.41,22.85c13.69-0.96,23.11-9.95,23.32-22.74c0.25-15.51,8.89-29.16,23.33-34.04
			c14.19-4.8,27.19-1.97,37.98,9.24c9.59,9.96,12.53,24.57,6.14,38.27c-5.81,12.45-15.95,19.72-29.99,20.08
			c-14.02,0.36-26.51,10.88-25.5,25.73C226.35,256.23,225.94,263.61,225.94,270.97z M249.42,387.7
			c12.88,1.68,23.39-11.28,23.51-22.66c0.17-15.1-12.75-24.03-22.85-23.94c-13.51,0.12-23.73,9.3-24.11,23.28
			C225.62,377.14,235.18,388.41,249.42,387.7z"/>
		<path d="M225.94,270.97c0-7.35,0.41-14.73-0.09-22.05c-1.01-14.85,11.48-25.38,25.5-25.73c14.05-0.36,24.19-7.63,29.99-20.08
			c6.39-13.7,3.44-28.31-6.14-38.27c-10.79-11.21-23.79-14.04-37.98-9.24c-14.44,4.88-23.08,18.53-23.33,34.04
			c-0.21,12.8-9.62,21.79-23.32,22.74c-11.45,0.8-23.33-11.08-23.41-22.85c-0.26-36.93,24.13-72.56,63.7-81.12
			c34.44-7.45,63.95,2.93,84.83,30.72c29.42,39.16,18.16,94.97-23.19,118.9c-5.07,2.93-10.6,5.08-15.64,8.06
			c-1.8,1.06-3.84,3.46-3.94,5.36c-0.44,8-0.14,16.03-0.2,24.05c-0.08,9.91-7.49,19.06-17.18,21.34
			c-11.14,2.62-21.76-1.41-26.12-10.74c-1.97-4.21-2.98-9.09-3.34-13.76C225.53,285.25,225.94,278.09,225.94,270.97z"/>
		<path d="M249.42,387.7c-14.24,0.71-23.8-10.56-23.45-23.32c0.38-13.98,10.6-23.16,24.11-23.28c10.11-0.09,23.02,8.84,22.85,23.94
			C272.81,376.42,262.3,389.38,249.42,387.7z"/>
	</g>
</g>
</svg>
