<?xml version="1.0" encoding="utf-8"?>
<!-- Generator: Adobe Illustrator 24.2.0, SVG Export Plug-In . SVG Version: 6.00 Build 0)  -->
<svg version="1.1" id="圖層_1" xmlns="http://www.w3.org/2000/svg" xmlns:xlink="http://www.w3.org/1999/xlink" x="0px" y="0px"
	 viewBox="0 0 500 500" style="enable-background:new 0 0 500 500;" xml:space="preserve">
<style type="text/css">
	.st0{fill:#FFFFFF;}
</style>
<g>
	<g>
		<path class="st0" d="M0,0c166.67,0,333.33,0,500,0c0,166.67,0,333.33,0,500c-166.67,0-333.33,0-500,0C0,333.33,0,166.67,0,0z
			 M250.36,6.49c-58.69,0-117.38,0-176.06,0c-2.43,0-4.99-0.43-7.28,0.14c-34.8,8.69-56.62,31.86-56.94,68.94
			C9.14,183.48,9.7,291.4,9.81,399.31c0.01,9.35,0.4,18.78,1.65,28.04c4.35,32.19,31.15,57.83,64.53,57.92
			c116.02,0.32,232.05,0.12,348.07,0.12c2.43,0,4.94,0.34,7.29-0.13c36.57-7.32,58.55-34.18,58.72-70.6
			c0.5-111.42,0.3-222.85-0.03-334.28c-0.03-9.63-1.95-19.59-4.83-28.83c-8.36-26.76-34.66-45.11-62.04-45.08
			C365.57,6.54,307.97,6.49,250.36,6.49z"/>
		<path d="M250.36,6.49c57.61,0,115.21,0.05,172.82-0.02c27.37-0.03,53.68,18.31,62.04,45.08c2.88,9.23,4.8,19.19,4.83,28.83
			c0.33,111.43,0.53,222.85,0.03,334.28c-0.16,36.43-22.15,63.28-58.72,70.6c-2.34,0.47-4.86,0.13-7.29,0.13
			c-116.02,0-232.05,0.2-348.07-0.12c-33.39-0.09-60.18-25.73-64.53-57.92c-1.25-9.25-1.64-18.69-1.65-28.04
			C9.7,291.4,9.14,183.48,10.07,75.58c0.32-37.09,22.14-60.25,56.94-68.94c2.3-0.57,4.85-0.14,7.28-0.14
			C132.99,6.49,191.67,6.49,250.36,6.49z M45.45,245.96c0,57.06,0.67,114.14-0.36,171.18c-0.36,20.1,17.68,34.24,34.24,34.22
			c113.86-0.14,227.71-0.15,341.57,0.02c16.84,0.03,31.89-12.43,33.58-28.66c0.81-7.72,0.81-15.55,0.93-23.33
			c0.32-21.03,0.67-42.06,0.69-63.1c0.02-18.5-0.58-36.99-0.57-55.49c0.01-21.3,0.62-42.6,0.57-63.9
			c-0.06-24.55-0.79-49.11-0.81-73.66c-0.02-20.47,0.7-40.94,0.84-61.41c0.18-27.09-14.65-42.25-41.99-41.57
			c-45.14,1.13-90.32,0.31-135.48,0.31c-66.53,0-133.06,0.14-199.59-0.09C62.06,40.43,44.83,55,45.13,73.96
			C46.04,131.28,45.45,188.63,45.45,245.96z"/>
		<path class="st0" d="M45.45,245.96c0-57.33,0.58-114.68-0.33-172C44.83,55,62.06,40.43,79.07,40.49
			c66.53,0.23,133.06,0.09,199.59,0.09c45.16,0,90.35,0.82,135.48-0.31c27.34-0.68,42.17,14.47,41.99,41.57
			c-0.13,20.47-0.85,40.94-0.84,61.41c0.02,24.55,0.75,49.11,0.81,73.66c0.05,21.3-0.56,42.6-0.57,63.9
			c-0.01,18.5,0.59,36.99,0.57,55.49c-0.02,21.03-0.37,42.06-0.69,63.1c-0.12,7.78-0.12,15.6-0.93,23.33
			c-1.7,16.23-16.74,28.69-33.58,28.66c-113.86-0.17-227.71-0.15-341.57-0.02c-16.57,0.02-34.61-14.12-34.24-34.22
			C46.12,360.1,45.45,303.03,45.45,245.96z M301.59,245.13c-21.89,0-43.78-0.14-65.66,0.05c-13.01,0.11-20.6,7.79-20.02,19.56
			c0.51,10.15,8.07,14.97,21.07,14.59c14.74-0.44,29.51-0.15,44.26-0.07c12.97,0.07,25.94,0.38,38.91,0.4
			c16.36,0.02,32.72-0.42,49.07-0.14c9.16,0.16,16.7-5.78,17.14-14.67c0.6-12.11-7.16-19.62-20.73-19.69
			C344.29,245.05,322.94,245.13,301.59,245.13z M301.27,349.03c-22.72,0-45.43-0.06-68.15,0.08c-2.79,0.02-5.92,0.44-8.3,1.75
			c-7.06,3.88-10.63,12.48-8.72,19.62c1.82,6.8,10.08,12.6,18.49,12.62c28.12,0.07,56.25,0.03,84.37,0.03
			c16.5,0,32.99,0.17,49.49-0.06c11.28-0.16,18.23-7.84,17.91-19.03c-0.28-9.62-6.62-14.99-17.76-15
			C346.16,349.02,323.71,349.03,301.27,349.03z M300.95,176.95c22.43,0,44.86,0.03,67.29-0.01c11.64-0.03,17.96-5.49,18.13-15.46
			c0.19-10.97-7-18.54-18.36-18.57c-44.59-0.12-89.18-0.11-133.76,0c-10.58,0.03-18.32,7.48-18.33,16.98
			c-0.01,10.58,6.97,17.04,18.56,17.06C256.63,176.97,278.79,176.95,300.95,176.95z M113.64,151.75c0,15.41,9.87,25.23,25.33,25.2
			c15.12-0.03,24.96-10.12,24.99-25.61c0.03-14.61-10.17-24.71-24.98-24.72C123.1,126.62,113.64,136,113.64,151.75z M113.64,356.67
			c-0.03,14.69,11.07,26.38,25.11,26.44c13.59,0.06,25.19-11.68,25.22-25.52c0.03-14.67-11.11-26.39-25.11-26.42
			C125.23,331.14,113.67,342.83,113.64,356.67z M138.51,279.22c15.82,0.01,25.45-9.54,25.45-25.21
			c-0.01-13.46-11.49-24.82-24.82-25.18c-13.46-0.37-26.52,11.12-25.67,26.29C114.27,269.58,123.55,279.21,138.51,279.22z"/>
		<path d="M301.59,245.13c21.35,0,42.7-0.08,64.04,0.03c13.57,0.07,21.32,7.58,20.73,19.69c-0.44,8.89-7.98,14.83-17.14,14.67
			c-16.35-0.28-32.71,0.16-49.07,0.14c-12.97-0.02-25.94-0.33-38.91-0.4c-14.75-0.08-29.52-0.37-44.26,0.07
			c-13,0.39-20.57-4.44-21.07-14.59c-0.59-11.78,7.01-19.45,20.02-19.56C257.82,244.99,279.7,245.13,301.59,245.13z"/>
		<path d="M301.27,349.03c22.45,0,44.89-0.01,67.34,0c11.13,0.01,17.47,5.38,17.76,15c0.33,11.19-6.63,18.87-17.91,19.03
			c-16.49,0.24-32.99,0.06-49.49,0.06c-28.12,0-56.25,0.05-84.37-0.03c-8.42-0.02-16.68-5.82-18.49-12.62
			c-1.91-7.13,1.66-15.73,8.72-19.62c2.38-1.31,5.51-1.73,8.3-1.75C255.84,348.97,278.55,349.03,301.27,349.03z"/>
		<path d="M300.95,176.95c-22.16,0-44.32,0.02-66.48-0.01c-11.59-0.02-18.57-6.48-18.56-17.06c0.01-9.5,7.76-16.95,18.33-16.98
			c44.59-0.11,89.18-0.11,133.76,0c11.36,0.03,18.55,7.59,18.36,18.57c-0.17,9.97-6.49,15.44-18.13,15.46
			C345.8,176.98,323.38,176.95,300.95,176.95z"/>
		<path d="M113.64,151.75c0-15.75,9.46-25.13,25.35-25.13c14.8,0.01,25.01,10.1,24.98,24.72c-0.03,15.49-9.87,25.58-24.99,25.61
			C123.5,176.98,113.64,167.16,113.64,151.75z"/>
		<path d="M113.64,356.67c0.03-13.84,11.59-25.53,25.22-25.5c14,0.03,25.14,11.75,25.11,26.42c-0.03,13.84-11.63,25.58-25.22,25.52
			C124.7,383.05,113.6,371.36,113.64,356.67z"/>
		<path d="M138.51,279.22c-14.96-0.01-24.24-9.64-25.05-24.11c-0.85-15.17,12.21-26.66,25.67-26.29
			c13.34,0.37,24.82,11.73,24.82,25.18C163.97,269.68,154.33,279.23,138.51,279.22z"/>
	</g>
</g>
</svg>
