<?xml version="1.0" encoding="utf-8"?>
<!-- Generator: Adobe Illustrator 24.2.0, SVG Export Plug-In . SVG Version: 6.00 Build 0)  -->
<svg version="1.1" id="圖層_1" xmlns="http://www.w3.org/2000/svg" xmlns:xlink="http://www.w3.org/1999/xlink" x="0px" y="0px"
	 viewBox="0 0 500 500" style="enable-background:new 0 0 500 500;" xml:space="preserve">
<style type="text/css">
	.st0{fill:#FFFFFF;}
</style>
<g>
	<g>
		<path class="st0" d="M508,477.29c-172,0-344,0-516,0C-8,325.86-8,174.43-8,23c172,0,344,0,516,0C508,174.43,508,325.86,508,477.29
			z M248.64,103.8c-8.9-12.22-18.61-23-30.24-32.12c-20.09-15.74-42.75-24.5-68.17-24.45c-10.61,0.02-21.44,2.29-31.79,4.98
			c-26.95,7-49.56,21.27-67.26,42.95c-16.88,20.66-25.85,44.63-28.2,70.93c-1.47,16.48-0.03,33.04,4.44,49.06
			c5.46,19.57,14.15,37.68,27.41,53.22c14.46,16.94,28.72,34.13,44.27,50.04c24.75,25.32,50.46,49.71,75.86,74.39
			c8.43,8.19,17.14,16.09,25.76,24.08c11.31,10.49,22.63,20.97,33.99,31.41c9.16,8.42,16.7,8.23,25.14,1.14
			c5.51-4.62,10.81-9.51,16.12-14.37c11.06-10.13,22.09-20.29,33.07-30.51c9.65-8.98,19.27-17.99,28.8-27.09
			c9.46-9.03,18.98-18.01,28.14-27.33c14.33-14.58,28.53-29.31,42.51-44.23c9.26-9.88,18.16-20.1,26.99-30.36
			c12.19-14.18,22.43-29.63,29.68-46.95c10.28-24.53,15.74-49.8,13-76.62c-1.68-16.49-5.93-32-13.98-46.49
			C456,90.72,445,78.36,430.9,69.31c-26.73-17.15-55.75-25.32-87.85-20.77c-13.98,1.98-27.24,5.92-39.88,11.96
			C281.89,70.66,264.29,85.57,248.64,103.8z"/>
		<path d="M248.64,103.8c15.64-18.23,33.25-33.14,54.53-43.3c12.64-6.03,25.9-9.97,39.88-11.96c32.1-4.55,61.12,3.61,87.85,20.77
			c14.1,9.05,25.1,21.41,33.29,36.16c8.05,14.5,12.3,30,13.98,46.49c2.74,26.83-2.72,52.09-13,76.62
			c-7.26,17.31-17.49,32.77-29.68,46.95c-8.83,10.27-17.73,20.48-26.99,30.36c-13.98,14.92-28.18,29.64-42.51,44.23
			c-9.16,9.32-18.68,18.3-28.14,27.33c-9.53,9.1-19.15,18.11-28.8,27.09c-10.98,10.22-22.01,20.37-33.07,30.51
			c-5.31,4.86-10.6,9.75-16.12,14.37c-8.45,7.08-15.98,7.28-25.14-1.14c-11.35-10.44-22.68-20.92-33.99-31.41
			c-8.62-8-17.33-15.89-25.76-24.08c-25.4-24.68-51.11-49.07-75.86-74.39c-15.55-15.91-29.81-33.1-44.27-50.04
			c-13.26-15.53-21.95-33.65-27.41-53.22c-4.47-16.02-5.91-32.57-4.44-49.06c2.35-26.29,11.32-50.27,28.2-70.93
			c17.71-21.68,40.31-35.94,67.26-42.95c10.35-2.69,21.18-4.96,31.79-4.98c25.42-0.05,48.08,8.71,68.17,24.45
			C230.04,80.8,239.74,91.58,248.64,103.8z M247.55,418.57c2.52-2.03,4.67-3.61,6.64-5.39c9.85-8.92,19.71-17.83,29.45-26.87
			c10.49-9.75,20.89-19.6,31.22-29.51c6.73-6.46,13.26-13.14,19.91-19.68c11.62-11.42,23.6-22.49,34.81-34.3
			c13.44-14.14,26.25-28.88,39.29-43.4c11.57-12.89,21.36-26.93,28.12-42.99c9.49-22.56,14.03-45.74,9.42-70.18
			c-3.48-18.46-11.59-34.22-26.24-46.45c-17.14-14.31-37.13-20.83-59.04-21.91c-6.11-0.3-12.53,0.18-18.41,1.77
			c-9.89,2.67-19.81,5.78-29.08,10.07c-10.42,4.83-19.4,12.08-28.06,19.79c-9.58,8.53-17.63,18.13-23.63,29.31
			c-3.12,5.81-7.88,8.68-13.65,8.85c-6.21,0.18-11.4-3.03-14.4-8.96c-8.15-16.14-18.95-30.15-32.99-41.65
			c-18.15-14.86-38.68-21.93-62.08-18.33c-15.87,2.44-30.47,8.37-43.84,17.64c-17.52,12.15-29.29,28.36-36.25,48.24
			c-5.6,16-6.77,32.41-4.35,49.23c2.37,16.47,7.67,31.79,17.27,45.31c6.97,9.81,14.53,19.27,22.52,28.28
			c13.57,15.3,27.53,30.25,41.62,45.07c7.24,7.61,15.1,14.63,22.67,21.93c8.54,8.24,17.02,16.54,25.61,24.72
			c9.65,9.19,19.37,18.3,29.1,27.4C224.53,397.18,235.94,407.77,247.55,418.57z"/>
		<path class="st0" d="M247.55,418.57c-11.61-10.8-23.02-21.39-34.39-32.02c-9.73-9.1-19.45-18.21-29.1-27.4
			c-8.59-8.18-17.07-16.48-25.61-24.72c-7.57-7.3-15.44-14.32-22.67-21.93c-14.09-14.82-28.05-29.77-41.62-45.07
			c-7.99-9-15.55-18.46-22.52-28.28c-9.6-13.52-14.91-28.84-17.27-45.31c-2.42-16.83-1.25-33.23,4.35-49.23
			c6.96-19.88,18.73-36.09,36.25-48.24c13.37-9.27,27.97-15.2,43.84-17.64c23.4-3.6,43.94,3.47,62.08,18.33
			c14.04,11.5,24.84,25.51,32.99,41.65c2.99,5.93,8.19,9.14,14.4,8.96c5.77-0.17,10.53-3.04,13.65-8.85
			c6-11.18,14.06-20.78,23.63-29.31c8.66-7.71,17.64-14.97,28.06-19.79c9.27-4.29,19.19-7.4,29.08-10.07
			c5.88-1.59,12.3-2.07,18.41-1.77c21.91,1.08,41.9,7.6,59.04,21.91c14.65,12.23,22.76,27.99,26.24,46.45
			c4.61,24.44,0.07,47.62-9.42,70.18c-6.76,16.06-16.55,30.11-28.12,42.99c-13.04,14.52-25.85,29.25-39.29,43.4
			c-11.21,11.8-23.19,22.88-34.81,34.3c-6.66,6.54-13.18,13.22-19.91,19.68c-10.33,9.91-20.74,19.76-31.22,29.51
			c-9.73,9.05-19.6,17.95-29.45,26.87C252.22,414.96,250.06,416.54,247.55,418.57z"/>
	</g>
</g>
</svg>
