<?xml version="1.0" encoding="utf-8"?>
<!-- Generator: Adobe Illustrator 24.2.0, SVG Export Plug-In . SVG Version: 6.00 Build 0)  -->
<svg version="1.1" id="圖層_1" xmlns="http://www.w3.org/2000/svg" xmlns:xlink="http://www.w3.org/1999/xlink" x="0px" y="0px"
	 viewBox="0 0 500 500" style="enable-background:new 0 0 500 500;" xml:space="preserve">
<style type="text/css">
	.st0{fill:#FFFFFF;}
</style>
<g>
	<g>
		<path class="st0" d="M500,500c-166.67,0-333.33,0-500,0C0,333.33,0,166.67,0,0c166.67,0,333.33,0,500,0
			C500,166.67,500,333.33,500,500z M249.84,444.97c51.62,0,103.23-0.06,154.85,0.04c12.89,0.03,25.28-1.7,37-7.44
			c27.09-13.25,42.37-34.88,45.38-64.77c1.02-10.12,0.45-20.4,0.47-30.61c0.06-36.2,0.06-72.4,0.07-108.61
			c0.01-33.04-0.21-66.08,0.08-99.12c0.17-19.18-3.59-36.93-15.26-52.6c-15.43-20.72-35.96-32.07-61.74-32.62
			c-26.37-0.57-52.76-0.13-79.14-0.13c-70.05,0-140.11-0.05-210.16,0.04c-13.99,0.02-28.13-0.65-41.94,1.08
			c-38.13,4.8-67.03,38.57-67.03,76.95c-0.01,79.8-0.02,159.6,0.05,239.39c0,4.64,0.44,9.33,1.22,13.91
			c6.22,36.31,39.24,64.38,76,64.46C143.08,445.05,196.46,444.96,249.84,444.97z"/>
		<path d="M249.84,444.96c-53.38,0-106.76,0.08-160.15-0.03c-36.76-0.08-69.78-28.15-76-64.46c-0.78-4.57-1.22-9.27-1.22-13.91
			c-0.07-79.8-0.06-159.6-0.05-239.39c0-38.37,28.9-72.15,67.03-76.95c13.81-1.74,27.95-1.06,41.94-1.08
			c70.05-0.09,140.11-0.04,210.16-0.04c26.38,0,52.77-0.44,79.14,0.13c25.78,0.56,46.31,11.9,61.74,32.62
			c11.67,15.67,15.43,33.42,15.26,52.6c-0.3,33.04-0.08,66.08-0.08,99.12c-0.01,36.2-0.01,72.4-0.07,108.61
			c-0.02,10.21,0.55,20.5-0.47,30.61c-3.01,29.89-18.29,51.52-45.38,64.77c-11.72,5.73-24.11,7.46-37,7.44
			C353.07,444.9,301.46,444.97,249.84,444.96z M448.49,202.17c-1.55,0.74-2.45,1.13-3.32,1.6c-18.26,9.84-36.5,19.71-54.77,29.52
			c-18.74,10.05-37.54,19.98-56.26,30.06c-24.77,13.34-49.49,26.77-74.23,40.16c-6.46,3.5-12.96,3.72-19.48,0.21
			c-5.2-2.8-10.34-5.71-15.54-8.52c-19.67-10.61-39.36-21.2-59.04-31.8c-19.67-10.6-39.31-21.24-59-31.79
			c-16.94-9.08-33.92-18.08-50.89-27.1c-1.36-0.72-2.76-1.37-4.54-2.25c0,14.9,0,29.15,0,43.4c0,40.11-0.13,80.22,0.06,120.33
			c0.11,22.89,17.98,40.03,40.91,40.02c104.64-0.04,209.28-0.23,313.92,0.11c23.15,0.07,42.51-17.68,42.26-42.02
			c-0.4-38.87-0.09-77.76-0.08-116.63C448.49,232.58,448.49,217.69,448.49,202.17z M249.59,88.08c0,0.01,0,0.03,0,0.04
			c-52.25,0-104.49,0.07-156.74-0.03c-21.14-0.04-38.53,13.93-40.92,34.67c-1.26,10.96-0.46,22.17-0.39,33.27
			c0.01,0.99,1.34,2.32,2.39,2.89c16.23,8.83,32.53,17.54,48.79,26.33c28.3,15.3,56.57,30.65,84.87,45.94
			c19.67,10.63,39.38,21.19,59.08,31.77c1.93,1.03,3.74,1.47,5.95,0.27c19.89-10.82,39.83-21.54,59.76-32.29
			c44.39-23.93,88.77-47.86,133.2-71.72c2.2-1.18,3-2.49,2.95-4.98c-0.16-8.58-0.03-17.17-0.07-25.75
			c-0.09-22.48-17.46-40.29-39.86-40.35C355.59,87.98,302.59,88.08,249.59,88.08z"/>
		<path class="st0" d="M448.49,202.17c0,15.52,0,30.41,0,45.3c-0.01,38.88-0.32,77.76,0.08,116.63
			c0.25,24.34-19.11,42.1-42.26,42.02c-104.64-0.34-209.28-0.15-313.92-0.11c-22.93,0.01-40.81-17.14-40.91-40.02
			c-0.19-40.11-0.06-80.22-0.06-120.33c0-14.25,0-28.5,0-43.4c1.78,0.88,3.18,1.52,4.54,2.25c16.97,9.02,33.95,18.02,50.89,27.1
			c19.69,10.56,39.33,21.2,59,31.79c19.68,10.6,39.37,21.19,59.04,31.8c5.2,2.8,10.34,5.71,15.54,8.52
			c6.52,3.51,13.02,3.28,19.48-0.21c24.74-13.4,49.46-26.82,74.23-40.16c18.72-10.08,37.53-20.01,56.26-30.06
			c18.28-9.8,36.52-19.68,54.77-29.52C446.03,203.3,446.94,202.91,448.49,202.17z"/>
		<path class="st0" d="M249.59,88.08c53,0,106-0.09,159,0.04c22.4,0.06,39.77,17.87,39.86,40.35c0.04,8.58-0.09,17.17,0.07,25.75
			c0.05,2.49-0.75,3.8-2.95,4.98c-44.43,23.86-88.81,47.79-133.2,71.72c-19.93,10.74-39.87,21.46-59.76,32.29
			c-2.22,1.21-4.03,0.77-5.95-0.27c-19.7-10.58-39.4-21.14-59.08-31.77c-28.3-15.29-56.57-30.64-84.87-45.94
			c-16.26-8.79-32.56-17.5-48.79-26.33c-1.05-0.57-2.38-1.9-2.39-2.89c-0.07-11.1-0.88-22.31,0.39-33.27
			c2.39-20.74,19.78-34.71,40.92-34.67c52.25,0.11,104.49,0.03,156.74,0.03C249.59,88.1,249.59,88.09,249.59,88.08z"/>
	</g>
</g>
</svg>
