<?xml version="1.0" encoding="utf-8"?>
<!-- Generator: Adobe Illustrator 24.2.0, SVG Export Plug-In . SVG Version: 6.00 Build 0)  -->
<svg version="1.1" id="圖層_1" xmlns="http://www.w3.org/2000/svg" xmlns:xlink="http://www.w3.org/1999/xlink" x="0px" y="0px"
	 viewBox="0 0 500 500" style="enable-background:new 0 0 500 500;" xml:space="preserve">
<style type="text/css">
	.st0{fill:#FFFFFF;}
</style>
<g>
	<g>
		<path class="st0" d="M0,0c166.44,0,333.17,0,500,0c0,166.59,0,333.2,0,500c-166.5,0-333.11,0-500,0C0,333.47,0,166.75,0,0z
			 M12.58,250.14c0,66.67-0.15,133.34,0.25,200.01c0.04,6.41,2.37,13.44,5.6,19.07c9.47,16.5,25.29,22.32,43.38,22.34
			c121.96,0.12,243.92,0.1,365.88,0c9.67-0.01,19.35-0.61,28.99-1.42c20.37-1.72,37.71-20.78,37.71-41.21
			c0.02-132.87,0.1-265.74-0.08-398.6c-0.03-23.29-19.27-41.51-41.71-41.57C319.92,8.36,187.24,8.45,54.56,8.66
			C32.14,8.7,12.62,27.73,12.6,50.84C12.55,117.27,12.58,183.71,12.58,250.14z"/>
		<path d="M12.58,250.14c0-66.43-0.03-132.87,0.02-199.3C12.62,27.73,32.14,8.7,54.56,8.66c132.68-0.21,265.36-0.3,398.03,0.09
			c22.43,0.07,41.67,18.29,41.71,41.57c0.18,132.87,0.09,265.74,0.08,398.6c0,20.44-17.34,39.49-37.71,41.21
			c-9.64,0.81-19.33,1.41-28.99,1.42c-121.96,0.09-243.92,0.12-365.88,0c-18.09-0.02-33.91-5.84-43.38-22.34
			c-3.23-5.62-5.56-12.66-5.6-19.07C12.43,383.48,12.58,316.81,12.58,250.14z M55.99,53.19c0,131.63,0,262.7,0,393.78
			c70.95,0,141.38,0,212.08,0c0-49.49,0-98.62,0-148.55c-19.09,0-37.76,0-56.4,0c0-22.13,0-43.47,0-65.6c19.01,0,37.68,0,56.83,0
			c0-9.79-0.33-18.81,0.07-27.81c0.68-15.29,0.62-30.75,3.01-45.8c4.86-30.58,25.83-52.26,56-59.15
			c25.24-5.76,50.68-2.57,76.29-1.24c0,20.07,0,39.68,0,59.16c-0.88,0.27-1.31,0.52-1.75,0.52c-12.15,0.05-24.33-0.45-36.44,0.23
			c-16.89,0.94-26,5.41-28.08,23.17c-1.95,16.6-0.42,33.61-0.42,51.2c21.79,0,42.85,0,65.06,0c-2.78,22.38-5.45,43.86-8.17,65.78
			c-19.34,0-37.83,0-56.49,0c0,49.68,0,98.82,0,147.87c37.71,0,74.95,0,112.11,0c0-131.45,0-262.35,0-393.58
			C318.38,53.19,187.43,53.19,55.99,53.19z"/>
		<path class="st0" d="M55.99,53.19c131.44,0,262.39,0,393.71,0c0,131.23,0,262.13,0,393.58c-37.16,0-74.4,0-112.11,0
			c0-49.05,0-98.19,0-147.87c18.65,0,37.14,0,56.49,0c2.72-21.91,5.39-43.39,8.17-65.78c-22.2,0-43.27,0-65.06,0
			c0-17.59-1.53-34.6,0.42-51.2c2.08-17.76,11.19-22.23,28.08-23.17c12.11-0.67,24.29-0.18,36.44-0.23c0.44,0,0.87-0.25,1.75-0.52
			c0-19.48,0-39.09,0-59.16c-25.61-1.33-51.05-4.52-76.29,1.24c-30.17,6.89-51.13,28.57-56,59.15c-2.39,15.05-2.33,30.51-3.01,45.8
			c-0.4,8.99-0.07,18.02-0.07,27.81c-19.15,0-37.82,0-56.83,0c0,22.12,0,43.47,0,65.6c18.64,0,37.31,0,56.4,0
			c0,49.92,0,99.06,0,148.55c-70.7,0-141.13,0-212.08,0C55.99,315.89,55.99,184.82,55.99,53.19z"/>
	</g>
</g>
</svg>
