<?xml version="1.0" encoding="utf-8"?>
<!-- Generator: Adobe Illustrator 24.2.0, SVG Export Plug-In . SVG Version: 6.00 Build 0)  -->
<svg version="1.1" id="圖層_1" xmlns="http://www.w3.org/2000/svg" xmlns:xlink="http://www.w3.org/1999/xlink" x="0px" y="0px"
	 viewBox="0 0 500 500" style="enable-background:new 0 0 500 500;" xml:space="preserve">
<style type="text/css">
	.st0{fill:#FFFFFF;}
</style>
<g>
	<g>
		<path class="st0" d="M500,500c-166.67,0-333.33,0-500,0C0,333.33,0,166.67,0,0c166.67,0,333.33,0,500,0
			C500,166.67,500,333.33,500,500z M251.1,8.93c-50.04,0-100.09-0.1-150.13,0.11c-7.27,0.03-14.7,0.83-21.77,2.47
			c-20.65,4.81-37.62,15.63-50.16,32.94C17.26,60.71,12.16,79.07,12.16,99.02c0.03,99.95-0.02,199.91,0.08,299.86
			c0.01,6.11,0.46,12.34,1.71,18.31c4.7,22.36,16.29,40.63,34.86,53.9c14.7,10.5,31.6,15.81,49.66,15.84
			c101.58,0.18,203.15,0.11,304.73,0.01c5.84-0.01,11.81-0.49,17.48-1.78c23.63-5.37,42.71-17.52,55.87-38.36
			c8.72-13.8,13.57-28.84,13.6-45.01c0.2-101.58,0.09-203.15,0.11-304.73c0-10.06-1.57-19.85-4.82-29.36
			c-5.27-15.46-14.07-28.43-26.77-38.9C443.35,16.16,425.61,9.34,406.1,9.12C354.44,8.55,302.77,8.93,251.1,8.93z"/>
		<path d="M251.1,8.93c51.67,0,103.34-0.38,155,0.19c19.51,0.22,37.25,7.04,52.59,19.68c12.7,10.46,21.49,23.44,26.77,38.9
			c3.24,9.5,4.82,19.3,4.82,29.36c-0.02,101.58,0.09,203.15-0.11,304.73c-0.03,16.17-4.89,31.22-13.6,45.01
			c-13.16,20.84-32.24,32.99-55.87,38.36c-5.68,1.29-11.65,1.78-17.48,1.78c-101.58,0.1-203.15,0.17-304.73-0.01
			c-18.06-0.03-34.96-5.33-49.66-15.84c-18.56-13.27-30.15-31.54-34.86-53.9c-1.25-5.96-1.7-12.2-1.71-18.31
			c-0.1-99.95-0.06-199.91-0.08-299.86c-0.01-19.96,5.09-38.31,16.88-54.58c12.54-17.3,29.5-28.13,50.16-32.94
			c7.07-1.65,14.5-2.44,21.77-2.47C151.01,8.83,201.06,8.93,251.1,8.93z M252.03,48.7c-50.59,0-101.18,0.04-151.78-0.03
			c-10.56-0.01-20.04,2.68-28.75,8.87C58.68,66.64,52.1,79.17,52.07,94.47c-0.23,101.32-0.12,202.64-0.08,303.96
			c0,3.19,0.34,6.4,0.79,9.56c3.18,22.3,22.65,39.17,44.88,39.19c101.59,0.12,203.18,0.04,304.77,0.08c8.41,0,16.37-1.49,23.73-5.71
			c15.27-8.76,24.17-21.9,24.22-39.5c0.26-101.59,0.18-203.18-0.01-304.77c-0.01-6.37-1.16-13.05-3.29-19.05
			c-6.24-17.58-23.38-29.43-41.63-29.49C354.3,48.59,303.17,48.7,252.03,48.7z"/>
		<path class="st0" d="M252.03,48.7c51.13,0,102.27-0.11,153.4,0.06c18.25,0.06,35.39,11.91,41.63,29.49
			c2.13,6,3.28,12.68,3.29,19.05c0.2,101.59,0.27,203.18,0.01,304.77c-0.04,17.6-8.94,30.74-24.22,39.5
			c-7.36,4.22-15.32,5.71-23.73,5.71c-101.59-0.04-203.18,0.04-304.77-0.08c-22.22-0.03-41.7-16.9-44.88-39.19
			c-0.45-3.16-0.79-6.37-0.79-9.56c-0.04-101.32-0.14-202.64,0.08-303.96c0.03-15.3,6.62-27.83,19.44-36.94
			c8.71-6.18,18.19-8.88,28.75-8.87C150.85,48.74,201.44,48.7,252.03,48.7z M271.1,267.86c30.42,0,60.17,0.02,89.92-0.04
			c2.64-0.01,5.32-0.32,7.91-0.84c7.23-1.44,11.75-6.31,14-12.88c2.51-7.33,0.71-14.11-4.63-19.89c-4.2-4.55-9.59-6.08-15.47-6.09
			c-29.08-0.06-58.15-0.03-87.23-0.03c-1.43,0-2.86,0-4.5,0c0-2.03,0-3.5,0-4.98c0-29.35,0.02-58.69-0.01-88.04
			c-0.01-10.84-9.03-20.08-19.81-19.73c-11.51,0.37-19.76,8.05-19.87,20.48c-0.26,29.21-0.08,58.42-0.08,87.63c0,1.44,0,2.88,0,4.64
			c-1.92,0-3.38,0-4.84,0c-29.35,0-58.7-0.26-88.04,0.12c-13.71,0.18-20.78,10.82-19.71,21.25c1.2,11.8,8.69,18.26,21.09,18.34
			c28.94,0.21,57.88,0.07,86.82,0.07c1.44,0,2.89,0,4.68,0c0,1.88,0,3.34,0,4.8c0,28.81-0.01,57.61,0.03,86.42
			c0,1.83,0.47,3.66,0.74,5.49c1.83,12.29,13.42,16.9,20.55,15.97c11.59-1.51,18.43-9.06,18.44-20.69
			c0.02-29.08,0.01-58.15,0.01-87.23C271.1,271.16,271.1,269.71,271.1,267.86z"/>
		<path d="M271.1,267.86c0,1.86,0,3.31,0,4.76c0,29.08,0.01,58.15-0.01,87.23c-0.01,11.63-6.85,19.18-18.44,20.69
			c-7.13,0.93-18.72-3.68-20.55-15.97c-0.27-1.83-0.74-3.66-0.74-5.49c-0.05-28.8-0.03-57.61-0.03-86.42c0-1.46,0-2.92,0-4.8
			c-1.79,0-3.24,0-4.68,0c-28.94,0-57.88,0.14-86.82-0.07c-12.4-0.09-19.89-6.55-21.09-18.34c-1.06-10.43,6-21.07,19.71-21.25
			c29.34-0.38,58.69-0.12,88.04-0.12c1.46,0,2.92,0,4.84,0c0-1.76,0-3.2,0-4.64c0-29.21-0.18-58.42,0.08-87.63
			c0.11-12.43,8.36-20.1,19.87-20.48c10.77-0.35,19.79,8.9,19.81,19.73c0.03,29.35,0.01,58.69,0.01,88.04c0,1.47,0,2.95,0,4.98
			c1.65,0,3.08,0,4.5,0c29.08,0,58.15-0.03,87.23,0.03c5.88,0.01,11.27,1.55,15.47,6.09c5.34,5.78,7.14,12.56,4.63,19.89
			c-2.25,6.57-6.77,11.44-14,12.88c-2.59,0.52-5.27,0.83-7.91,0.84C331.27,267.88,301.52,267.86,271.1,267.86z"/>
	</g>
</g>
</svg>
