<?xml version="1.0" encoding="utf-8"?>
<!-- Generator: Adobe Illustrator 24.2.0, SVG Export Plug-In . SVG Version: 6.00 Build 0)  -->
<svg version="1.1" id="圖層_1" xmlns="http://www.w3.org/2000/svg" xmlns:xlink="http://www.w3.org/1999/xlink" x="0px" y="0px"
	 viewBox="0 0 500 500" style="enable-background:new 0 0 500 500;" xml:space="preserve">
<style type="text/css">
	.st0{fill:#FFFFFF;}
</style>
<g>
	<path class="st0" d="M500,500c-166.67,0-333.33,0-500,0C0,333.33,0,166.67,0,0c166.67,0,333.33,0,500,0
		C500,166.67,500,333.33,500,500z M442.31,99.04c-19.92-9.06-39.13-17.95-58.47-26.54c-37-16.44-74.28-32.26-111.02-49.27
		c-16.46-7.62-31.86-15.11-48.73-1.58c-2.94,2.36-7.16,3.07-10.73,4.68c-20.75,9.31-41.43,18.77-62.22,27.98
		c-31.77,14.06-63.57,28.05-95.45,41.85c-5.02,2.17-6.2,5.29-6.13,10.44c0.29,20.29-0.19,40.6,0.19,60.89
		c0.64,34.25-2.22,68.57,3.03,102.72c3.6,23.38,9.89,45.94,19.34,67.53c19.46,44.45,47.66,82.24,86.48,111.8
		c25.5,19.42,53.51,33.58,84.64,41.41c1.64,0.41,3.55,0.59,5.15,0.17c37.92-9.92,71.66-27.87,100.6-54.21
		c30.11-27.41,54.13-59.37,70.2-97.14c12.29-28.89,21.47-58.91,22.61-90.01C443.65,199.61,442.31,149.36,442.31,99.04z"/>
	<path d="M442.31,99.04c0,50.32,1.35,100.57-0.5,150.71c-1.14,31.09-10.32,61.12-22.61,90.01c-16.07,37.77-40.09,69.73-70.2,97.14
		c-28.94,26.34-62.69,44.29-100.6,54.21c-1.6,0.42-3.51,0.24-5.15-0.17c-31.13-7.83-59.14-21.99-84.64-41.41
		c-38.83-29.57-67.02-67.36-86.48-111.8c-9.45-21.59-15.74-44.14-19.34-67.53c-5.25-34.15-2.39-68.48-3.03-102.72
		c-0.38-20.29,0.1-40.6-0.19-60.89c-0.07-5.14,1.11-8.27,6.13-10.44c31.88-13.79,63.69-27.78,95.45-41.85
		c26.78-11.86,54.55-23.96,62.22-27.98c0.8-0.42,4.94-2.6,10.64-5.32c6.21-2.95,11.12-5.29,14.11-6.27
		c8.33-2.73,16.36-0.01,34.71,8.49c36.73,17.01,74.02,32.83,111.02,49.27C403.18,81.09,422.38,89.98,442.31,99.04z M92.95,127.76
		c0,34.25-0.47,68.44,0.22,102.59c0.29,14.65,2.1,29.41,4.76,43.85c7.91,42.98,27.59,80.49,56.36,113.01
		c21.39,24.19,47.85,41.94,77.49,54.57c5.95,2.53,12.18,5.85,19.91,3.06c42.2-15.2,76.2-41.4,102.18-77.44
		c18.39-25.5,27.71-48.7,31.76-60.37c2.28-6.57,6.76-20.45,10.37-43.03c11.44-71.47-0.17-140.12-0.17-140.12
		c0,0-23.42-8.37-23.42-8.37S292.96,80.14,252,62.17c-2.85-1.25-7.08-1.45-9.92-0.29c-16.92,6.91-33.67,14.23-50.37,21.65
		C158.82,98.15,126.01,112.94,92.95,127.76z"/>
	<path class="st0" d="M92.95,127.76c33.06-14.82,65.87-29.61,98.76-44.23c16.7-7.43,33.45-14.75,50.37-21.65
		c2.84-1.16,7.07-0.96,9.92,0.29c40.21,17.61,80.3,35.51,120.41,53.34c13.7,6.09,15.04,6.59,15.04,6.59
		c3.35,0.93,5.33,1.15,6.95,2.89c3.91,4.2,1.29,12.5,0.75,14.39c-4.88,16.86,4.62,42.89,3.91,85.87
		c-0.27,16.51-0.95,46.32-13.39,81.7c-7.46,21.2-18.04,41.38-31.79,60.45c-25.98,36.04-59.98,62.24-102.18,77.44
		c-7.73,2.78-13.97-0.53-19.91-3.06c-29.64-12.63-56.1-30.38-77.49-54.57c-28.77-32.53-48.45-70.03-56.36-113.01
		c-2.66-14.43-4.47-29.2-4.76-43.85C92.48,196.19,92.95,162.01,92.95,127.76z M224.91,229.54c0,43.95,0,87.27,0,130.4
		c14.53,0,28.49,0,42.3,0c0-43.77,0-86.9,0-130.4C253.04,229.54,239.26,229.54,224.91,229.54z M267.16,185.5c0-14.35,0-28.3,0-42.34
		c-14.42,0-28.37,0-42.19,0c0,14.5,0,28.45,0,42.34C239.34,185.5,253.1,185.5,267.16,185.5z"/>
	<path d="M224.91,229.54c14.35,0,28.12,0,42.3,0c0,43.5,0,86.63,0,130.4c-13.81,0-27.78,0-42.3,0
		C224.91,316.81,224.91,273.49,224.91,229.54z"/>
	<path d="M267.16,185.5c-14.06,0-27.82,0-42.19,0c0-13.89,0-27.84,0-42.34c13.82,0,27.77,0,42.19,0
		C267.16,157.2,267.16,171.15,267.16,185.5z"/>
</g>
</svg>
