<?xml version="1.0" encoding="utf-8"?>
<!-- Generator: Adobe Illustrator 24.2.0, SVG Export Plug-In . SVG Version: 6.00 Build 0)  -->
<svg version="1.1" id="圖層_1" xmlns="http://www.w3.org/2000/svg" xmlns:xlink="http://www.w3.org/1999/xlink" x="0px" y="0px"
	 viewBox="0 0 500 500" style="enable-background:new 0 0 500 500;" xml:space="preserve">
<style type="text/css">
	.st0{fill:#FFFFFF;}
</style>
<g>
	<path class="st0" d="M500,500c-166.67,0-333.33,0-500,0C0,333.33,0,166.67,0,0c166.67,0,333.33,0,500,0
		C500,166.67,500,333.33,500,500z M16.39,246.82c0.46,0,0.91,0,1.37,0c0,34.06-0.21,68.12,0.14,102.17
		c0.09,9.14,1.14,18.42,3.07,27.36c6.1,28.33,18.18,53.37,40.67,72.8c11,9.51,23.11,16.73,36.43,22.2
		c26.54,10.91,54.8,11.6,82.66,11.94c53.17,0.65,106.36-0.32,159.53-1.22c14.99-0.25,30.12-1.54,44.87-4.14
		c24.65-4.35,46.67-14.92,64.88-32.49c24.55-23.68,35.75-53.71,38.81-86.76c2.2-23.79,2.76-47.78,2.84-71.69
		c0.12-38.46-0.4-76.93-1.37-115.38c-0.46-18.36-1.5-36.84-4.2-54.98c-3.87-25.97-15.2-48.94-33.71-67.81
		c-14.31-14.59-31.62-24.65-51.07-31.05c-26.01-8.56-53.16-9.05-79.92-9.22c-58.78-0.36-117.6-2.29-176.35,2.26
		c-23.74,1.84-46.31,7.2-66.64,19.7C55.16,44.79,38.62,64.78,28.45,90.36c-9.31,23.41-11.02,47.92-11.84,72.47
		C15.68,190.8,16.39,218.82,16.39,246.82z"/>
	<path d="M16.39,246.82c0-28-0.72-56.02,0.22-83.99c0.82-24.54,2.53-49.06,11.84-72.47C38.62,64.78,55.16,44.79,78.4,30.52
		c20.33-12.5,42.9-17.86,66.64-19.7c58.75-4.55,117.57-2.62,176.35-2.26c26.76,0.17,53.91,0.66,79.92,9.22
		c19.45,6.4,36.75,16.46,51.07,31.05c18.51,18.86,29.84,41.83,33.71,67.81c2.7,18.14,3.74,36.62,4.2,54.98
		c0.97,38.45,1.49,76.92,1.37,115.38c-0.08,23.91-0.63,47.91-2.84,71.69c-3.06,33.04-14.26,63.08-38.81,86.76
		c-18.21,17.56-40.23,28.14-64.88,32.49c-14.75,2.6-29.88,3.89-44.87,4.14c-53.17,0.89-106.37,1.86-159.53,1.22
		c-27.86-0.34-56.12-1.03-82.66-11.94c-7.65-3.14-21.87-9.38-36.43-22.2C32.74,423.71,23.94,390.85,21,376
		c-1.82-20.36-3.21-41.78-4.01-64.17C16.17,289.18,16.03,267.48,16.39,246.82z M448.09,245.74c0-22.54,0.52-45.1-0.16-67.62
		c-0.55-18.19-1.43-36.51-4.2-54.46c-4.34-28.13-19.88-48.84-45.86-61.28c-16.75-8.02-34.95-9.57-52.92-10.23
		c-13.16-0.49-34.5-2.11-104.92-1.54c-2.21,0.02-13.28,0.11-28.03,0.38c-34.3,0.63-47.9,1.49-59.54,2.55
		c-21.2,1.93-29.36,4.28-37.31,6.88c-23.51,7.68-38.87,24.46-47.64,47.54c-8.33,21.94-8.17,45.09-8.43,67.78
		c-0.62,53.63,0.34,107.29,1.19,160.93c0.2,12.25,1.35,24.76,4.16,36.65c8.76,37.03,34.19,58.41,69.57,63.45
		c23.13,3.29,46.75,4.09,70.17,4.26c42.48,0.3,84.98-0.38,127.46-1.32c15.45-0.34,30.99-1.69,46.26-4.09
		c32.09-5.06,58.02-29.31,64.48-61.3c3.22-15.96,4.93-32.4,5.47-48.68C448.73,299.04,448.09,272.38,448.09,245.74z"/>
	<path class="st0" d="M448.09,245.74c0,26.64,0.64,53.3-0.24,79.91c-0.54,16.28-2.25,32.72-5.47,48.68
		c-6.46,31.99-32.39,56.25-64.48,61.3c-15.26,2.4-30.81,3.75-46.26,4.09c-42.48,0.93-84.98,1.62-127.46,1.32
		c-23.41-0.17-47.04-0.96-70.17-4.26c-35.38-5.04-60.8-26.42-69.57-63.45c-2.81-11.89-3.97-24.4-4.16-36.65
		c-0.86-53.64-1.81-107.3-1.19-160.93c0.26-22.69,0.09-45.84,8.43-67.78c8.77-23.09,24.14-39.86,47.64-47.54
		c11.93-3.9,24.75-6.15,37.31-6.88c23.99-1.4,48.08-1.12,72.12-1.69c5.16-0.12,10.3-1.29,15.45-1.25
		C275,50.94,310,50.87,344.95,52.16c17.97,0.66,36.17,2.22,52.92,10.23c25.98,12.44,41.52,33.14,45.86,61.28
		c2.77,17.95,3.64,36.27,4.2,54.46C448.61,200.64,448.09,223.2,448.09,245.74z M253.59,124.32
		c-67.93-1.28-121.16,54.38-122.16,118.27c-1.15,73.98,54.89,125.81,122.19,125.71c69.39-0.1,118.38-52.27,121.94-115.78
		C379.67,179.4,319.81,122.43,253.59,124.32z M383.19,150.27c17.9-1.29,29.21-13.39,28.89-28.95
		c-0.37-18.27-12.18-29.51-29.13-29.36c-16.83,0.15-28.8,11.87-28.84,28.78C354.07,137.97,365.92,148.93,383.19,150.27z"/>
	<path d="M253.59,124.32c66.22-1.89,126.09,55.08,121.98,128.21c-3.57,63.51-52.55,115.68-121.94,115.78
		c-67.3,0.1-123.35-51.73-122.19-125.71C132.42,178.69,185.66,123.04,253.59,124.32z M174.86,246.82
		c-0.92,42.89,35.63,76.73,74.43,78.39c49.07,2.09,83.89-36.66,83.8-79.06c-0.09-45.18-35.54-78.47-78.06-79.37
		C210.72,165.83,173.24,202.28,174.86,246.82z"/>
	<path d="M383.19,150.27c-17.27-1.34-29.12-12.3-29.08-29.53c0.04-16.9,12.01-28.63,28.84-28.78c16.95-0.15,28.76,11.1,29.13,29.36
		C412.4,136.88,401.1,148.98,383.19,150.27z"/>
	<path class="st0" d="M174.86,246.82c-1.62-44.53,35.85-80.99,80.17-80.05c42.52,0.9,77.96,34.19,78.06,79.37
		c0.09,42.4-34.73,81.15-83.8,79.06C210.49,323.55,173.95,289.71,174.86,246.82z"/>
</g>
</svg>
